{
  "accessors": [
    {
      "bufferView": 2,
      "componentType": 5126,
      "count": 9597,
      "max": [
        0.87826001644134521,
        1.1337300539016724,
        7.6244602203369141
      ],
      "min": [
        -0.60466998815536499,
        -1.0071799755096436,
        -0.002529999939724803
      ],
      "type": "VEC3"
    },
    {
      "bufferView": 2,
      "byteOffset": 115164,
      "componentType": 5126,
      "count": 9597,
      "max": [
        0.99999970197677612,
        0.99999970197677612,
        1
      ],
      "min": [
        -0.99999970197677612,
        -0.99999791383743286,
        -0.99480026960372925
      ],
      "type": "VEC3"
    },
    {
      "bufferView": 3,
      "componentType": 5126,
      "count": 9597,
      "max": [
        0.99990862607955933,
        0.99999576807022095,
        0.99859583377838135,
        1
      ],
      "min": [
        -0.99998867511749268,
        -0.9998929500579834,
        -0.99365478754043579,
        -1
      ],
      "type": "VEC4"
    },
    {
      "bufferView": 1,
      "componentType": 5126,
      "count": 9597,
      "max": [
        1,
        1
      ],
      "min": [
        0,
        0
      ],
      "type": "VEC2"
    },
    {
      "bufferView": 1,
      "byteOffset": 76776,
      "componentType": 5126,
      "count": 9597,
      "max": [
        0,
        0
      ],
      "min": [
        0,
        0
      ],
      "type": "VEC2"
    },
    {
      "bufferView": 0,
      "componentType": 5125,
      "count": 26676,
      "max": [
        9596
      ],
      "min": [
        0
      ],
      "type": "SCALAR"
    }
  ],
  "asset": {
    "extras": {
      "author": "rhcreations (https://sketchfab.com/rhcreations)",
      "license": "CC-BY-4.0 (http://creativecommons.org/licenses/by/4.0/)",
      "source": "https://sketchfab.com/3d-models/cactus-1-downloadable-976b67b80efd4a7388ec85bfc4e39ecf",
      "title": "Cactus 1 (Downloadable)"
    },
    "generator": "Sketchfab-5.43.0",
    "version": "2.0"
  },
  "bufferViews": [
    {
      "buffer": 0,
      "byteLength": 106704,
      "byteOffset": 0,
      "name": "floatBufferViews",
      "target": 34963
    },
    {
      "buffer": 0,
      "byteLength": 153552,
      "byteOffset": 106704,
      "byteStride": 8,
      "name": "floatBufferViews",
      "target": 34962
    },
    {
      "buffer": 0,
      "byteLength": 230328,
      "byteOffset": 260256,
      "byteStride": 12,
      "name": "floatBufferViews",
      "target": 34962
    },
    {
      "buffer": 0,
      "byteLength": 153552,
      "byteOffset": 490584,
      "byteStride": 16,
      "name": "floatBufferViews",
      "target": 34962
    }
  ],
  "buffers": [
    {
      "byteLength": 644136,
      "uri": "scene.bin"
    }
  ],
  "extensionsRequired": [
    "KHR_materials_pbrSpecularGlossiness"
  ],
  "extensionsUsed": [
    "KHR_materials_pbrSpecularGlossiness"
  ],
  "images": [
    {
      "uri": "textures/Cactus_1_Material_specularGlossiness.png"
    },
    {
      "uri": "textures/Cactus_1_Material_diffuse.png"
    }
  ],
  "materials": [
    {
      "doubleSided": true,
      "extensions": {
        "KHR_materials_pbrSpecularGlossiness": {
          "diffuseFactor": [
            1,
            1,
            1,
            1
          ],
          "diffuseTexture": {
            "index": 1,
            "texCoord": 0
          },
          "glossinessFactor": 1,
          "specularFactor": [
            0,
            0,
            0
          ],
          "specularGlossinessTexture": {
            "index": 0,
            "texCoord": 0
          }
        }
      },
      "name": "Cactus_1_Material"
    }
  ],
  "meshes": [
    {
      "name": "Cactus 1_0",
      "primitives": [
        {
          "attributes": {
            "NORMAL": 1,
            "POSITION": 0,
            "TANGENT": 2,
            "TEXCOORD_0": 3,
            "TEXCOORD_1": 4
          },
          "indices": 5,
          "material": 0,
          "mode": 4
        }
      ]
    }
  ],
  "nodes": [
    {
      "children": [
        1
      ],
      "name": "RootNode (gltf orientation matrix)",
      "rotation": [
        -0.70710678118654746,
        -0,
        -0,
        0.70710678118654757
      ]
    },
    {
      "children": [
        2
      ],
      "name": "RootNode (model correction matrix)"
    },
    {
      "children": [
        3
      ],
      "name": "Root"
    },
    {
      "children": [
        4
      ],
      "matrix": [
        6.1824999999999992,
        0,
        0,
        0,
        0,
        6.1824999999999992,
        0,
        0,
        0,
        0,
        6.1824999999999992,
        0,
        0,
        0,
        0,
        1
      ],
      "name": "Cactus 1"
    },
    {
      "mesh": 0,
      "name": "Cactus 1_0"
    }
  ],
  "samplers": [
    {
      "magFilter": 9729,
      "minFilter": 9987,
      "wrapS": 10497,
      "wrapT": 10497
    }
  ],
  "scene": 0,
  "scenes": [
    {
      "name": "OSG_Scene",
      "nodes": [
        0
      ]
    }
  ],
  "textures": [
    {
      "sampler": 0,
      "source": 0
    },
    {
      "sampler": 0,
      "source": 1
    }
  ]
}

