{
  "accessors": [
    {
      "bufferView": 2,
      "componentType": 5126,
      "count": 24911,
      "max": [
        6.187230110168457,
        5.9072399139404297,
        10.532050132751465
      ],
      "min": [
        -7.2537798881530762,
        -6.3664798736572266,
        -0.053130000829696655
      ],
      "type": "VEC3"
    },
    {
      "bufferView": 2,
      "byteOffset": 298932,
      "componentType": 5126,
      "count": 24911,
      "max": [
        0.99945741891860962,
        0.99997597932815552,
        0.99970179796218872
      ],
      "min": [
        -0.99981385469436646,
        -0.9998663067817688,
        -0.9999881386756897
      ],
      "type": "VEC3"
    },
    {
      "bufferView": 3,
      "componentType": 5126,
      "count": 24911,
      "max": [
        0.99998557567596436,
        0.99990582466125488,
        0.99994885921478271,
        1
      ],
      "min": [
        -0.99985677003860474,
        -0.99995005130767822,
        -0.99988865852355957,
        -1
      ],
      "type": "VEC4"
    },
    {
      "bufferView": 1,
      "componentType": 5126,
      "count": 24911,
      "max": [
        1,
        1
      ],
      "min": [
        0,
        0
      ],
      "type": "VEC2"
    },
    {
      "bufferView": 1,
      "byteOffset": 199288,
      "componentType": 5126,
      "count": 24911,
      "max": [
        0,
        0
      ],
      "min": [
        0,
        0
      ],
      "type": "VEC2"
    },
    {
      "bufferView": 0,
      "componentType": 5125,
      "count": 75546,
      "max": [
        24910
      ],
      "min": [
        0
      ],
      "type": "SCALAR"
    }
  ],
  "asset": {
    "extras": {
      "author": "rhcreations (https://sketchfab.com/rhcreations)",
      "license": "CC-BY-4.0 (http://creativecommons.org/licenses/by/4.0/)",
      "source": "https://sketchfab.com/3d-models/cactus-2-downloadable-290ead6382604fb6b623dd0dc3deb07c",
      "title": "Cactus 2 (Downloadable)"
    },
    "generator": "Sketchfab-5.43.0",
    "version": "2.0"
  },
  "bufferViews": [
    {
      "buffer": 0,
      "byteLength": 302184,
      "byteOffset": 0,
      "name": "floatBufferViews",
      "target": 34963
    },
    {
      "buffer": 0,
      "byteLength": 398576,
      "byteOffset": 302184,
      "byteStride": 8,
      "name": "floatBufferViews",
      "target": 34962
    },
    {
      "buffer": 0,
      "byteLength": 597864,
      "byteOffset": 700760,
      "byteStride": 12,
      "name": "floatBufferViews",
      "target": 34962
    },
    {
      "buffer": 0,
      "byteLength": 398576,
      "byteOffset": 1298624,
      "byteStride": 16,
      "name": "floatBufferViews",
      "target": 34962
    }
  ],
  "buffers": [
    {
      "byteLength": 1697200,
      "uri": "scene.bin"
    }
  ],
  "extensionsRequired": [
    "KHR_materials_pbrSpecularGlossiness"
  ],
  "extensionsUsed": [
    "KHR_materials_pbrSpecularGlossiness"
  ],
  "images": [
    {
      "uri": "textures/Cactus_2_Material_diffuse.png"
    }
  ],
  "materials": [
    {
      "doubleSided": true,
      "extensions": {
        "KHR_materials_pbrSpecularGlossiness": {
          "diffuseFactor": [
            1,
            1,
            1,
            1
          ],
          "diffuseTexture": {
            "index": 0,
            "texCoord": 0
          },
          "glossinessFactor": 1,
          "specularFactor": [
            0,
            0,
            0
          ]
        }
      },
      "name": "Cactus_2_Material"
    }
  ],
  "meshes": [
    {
      "name": "Cactus 2_0",
      "primitives": [
        {
          "attributes": {
            "NORMAL": 1,
            "POSITION": 0,
            "TANGENT": 2,
            "TEXCOORD_0": 3,
            "TEXCOORD_1": 4
          },
          "indices": 5,
          "material": 0,
          "mode": 4
        }
      ]
    }
  ],
  "nodes": [
    {
      "children": [
        1
      ],
      "name": "RootNode (gltf orientation matrix)",
      "rotation": [
        -0.70710678118654746,
        -0,
        -0,
        0.70710678118654757
      ]
    },
    {
      "children": [
        2
      ],
      "name": "RootNode (model correction matrix)"
    },
    {
      "children": [
        3
      ],
      "name": "Root"
    },
    {
      "children": [
        4
      ],
      "matrix": [
        0.46876000000000001,
        0,
        0,
        0,
        0,
        0.46876000000000001,
        0,
        0,
        0,
        0,
        0.46876000000000001,
        0,
        0,
        0,
        0,
        1
      ],
      "name": "Cactus 2"
    },
    {
      "mesh": 0,
      "name": "Cactus 2_0"
    }
  ],
  "samplers": [
    {
      "magFilter": 9729,
      "minFilter": 9987,
      "wrapS": 10497,
      "wrapT": 10497
    }
  ],
  "scene": 0,
  "scenes": [
    {
      "name": "OSG_Scene",
      "nodes": [
        0
      ]
    }
  ],
  "textures": [
    {
      "sampler": 0,
      "source": 0
    }
  ]
}

